<?xml version="1.0" encoding="UTF-8" standalone="no"?>
<svg
   viewBox="0 0 517 517"
   version="1.1"
   id="svg4"
   sodipodi:docname="medal-solid-silver.svg"
   width="517"
   height="517"
   inkscape:version="1.1.1 (3bf5ae0d25, 2021-09-20)"
   xmlns:inkscape="http://www.inkscape.org/namespaces/inkscape"
   xmlns:sodipodi="http://sodipodi.sourceforge.net/DTD/sodipodi-0.dtd"
   xmlns="http://www.w3.org/2000/svg"
   xmlns:svg="http://www.w3.org/2000/svg">
  <defs
     id="defs8" />
  <sodipodi:namedview
     id="namedview6"
     pagecolor="#ffffff"
     bordercolor="#666666"
     borderopacity="1.0"
     inkscape:pageshadow="2"
     inkscape:pageopacity="0.0"
     inkscape:pagecheckerboard="0"
     showgrid="false"
     inkscape:zoom="0.8125"
     inkscape:cx="153.23077"
     inkscape:cy="268.92308"
     inkscape:window-width="1920"
     inkscape:window-height="1017"
     inkscape:window-x="1912"
     inkscape:window-y="-8"
     inkscape:window-maximized="1"
     inkscape:current-layer="svg4" />
  <!--! Font Awesome Pro 6.3.0 by @fontawesome - https://fontawesome.com License - https://fontawesome.com/license (Commercial License) Copyright 2023 Fonticons, Inc. -->
  <path
     d="m 6.7108558,40.810856 c -2.7,-4 -4.1,-8.8 -4.1,-13.6 0,-13.6 11.0000002,-24.6000002 24.6000002,-24.6000002 H 136.51085 c 11.2,0 21.7,5.9 27.4,15.5000002 l 68.5,114.100004 c -48.2,6.1 -91.3,28.6 -123.4,61.9 z m 503.6999942,0 -102.2,153.300004 c -32.1,-33.3 -75.2,-55.8 -123.4,-61.9 l 68.5,-114.100004 c 5.8,-9.6000002 16.2,-15.5000002 27.4,-15.5000002 h 109.3 c 13.6,0 24.6,11.0000002 24.6,24.6000002 0,4.8 -1.4,9.6 -4.1,13.6 z M 82.610856,338.61086 a 176,176 0 1 1 351.999994,0 176,176 0 1 1 -351.999994,0 z m 184.399994,-94.9 c -3.4,-7 -13.3,-7 -16.8,0 l -22.4,45.4 c -1.4,2.8 -4,4.7 -7,5.1 l -50.2,7.3 c -7.7,1.1 -10.7,10.5 -5.2,16 l 36.3,35.4 c 2.2,2.2 3.2,5.2 2.7,8.3 l -8.6,49.9 c -1.3,7.6 6.7,13.5 13.6,9.9 l 44.8,-23.6 c 2.7,-1.4 6,-1.4 8.7,0 l 44.8,23.6 c 6.9,3.6 14.9,-2.2 13.6,-9.9 l -8.6,-49.9 c -0.5,-3 0.5,-6.1 2.7,-8.3 l 36.3,-35.4 c 5.6,-5.4 2.5,-14.8 -5.2,-16 l -50.1,-7.3 c -3,-0.4 -5.7,-2.4 -7,-5.1 z"
     id="path2"
     style="fill:#9e9e9e;fill-opacity:1;stroke:#ffffff;stroke-width:5;stroke-miterlimit:4;stroke-dasharray:none;stroke-opacity:1" />
  <path
     style="fill:#fffffe;fill-opacity:1;stroke:none;stroke-width:0.870285"
     d="m 200.00279,418.47379 c -3.35894,-0.91825 -6.36122,-4.49815 -6.37286,-7.59894 -0.005,-1.25176 1.99688,-13.923 4.44793,-28.15831 2.63733,-15.31718 4.22817,-26.86285 3.89719,-28.28427 -0.37387,-1.60563 -7.33319,-9.03759 -20.99273,-22.41844 -18.52163,-18.14376 -20.43256,-20.28524 -20.42406,-22.88821 0.0129,-3.95003 2.0647,-7.56668 4.97247,-8.76478 1.33888,-0.55167 14.22612,-2.72314 28.63832,-4.8255 14.4122,-2.10236 27.09249,-4.34965 28.17843,-4.99398 1.30401,-0.77372 6.04643,-9.44569 13.96673,-25.5395 6.59576,-13.40239 12.97638,-25.28831 14.17914,-26.41315 2.41106,-2.25487 6.93409,-2.72573 10.06864,-1.04817 1.20525,0.64503 6.30819,9.88346 14.4545,26.16857 8.52072,17.03361 13.28939,25.6288 14.75002,26.58584 1.40985,0.92377 11.1477,2.7386 28.07731,5.23275 14.25538,2.10016 26.43853,3.82566 27.07366,3.83445 0.63514,0.009 2.29956,1.16074 3.69871,2.55989 2.01126,2.01126 2.55056,3.33239 2.57567,6.30957 l 0.0318,3.76566 -20.02261,19.58142 c -12.69342,12.41372 -20.36689,20.57415 -20.96317,22.29347 -0.77332,2.22983 -0.15892,7.21052 3.45543,28.01178 2.4178,13.91486 4.396,26.60802 4.396,28.20701 0,3.75149 -2.06252,6.6354 -5.88891,8.23417 -2.97585,1.24339 -3.24484,1.17811 -10.9824,-2.66518 -4.36251,-2.16689 -15.76439,-8.06128 -25.33753,-13.09865 -10.38378,-5.46394 -18.42851,-9.16562 -19.94099,-9.17561 -1.59325,-0.0105 -10.84314,4.34562 -24.89425,11.72369 -26.91582,14.13317 -27.42634,14.35296 -31.0424,13.36442 z"
     id="path971" />
</svg>
